<mxfile host="app.diagrams.net" modified="2023-06-12T08:15:06.191Z" agent="Mozilla/5.0 (Windows NT 10.0; Win64; x64) AppleWebKit/537.36 (KHTML, like Gecko) Chrome/114.0.0.0 Safari/537.36 Edg/114.0.1823.41" version="21.3.8" etag="4OTW6ft2bWT8hZF0vGTp" type="github">
  <diagram name="第 1 页" id="mCtLUXz-bnEj-Biav46f">
    <mxGraphModel>
      <root>
        <mxCell id="0" />
        <mxCell id="1" parent="0" />
      </root>
    </mxGraphModel>
  </diagram>
</mxfile>
